#format: frame checksums
#version: 2
#hash: MD5
#tb 0: 1001/30000
#media_type 0: video
#codec_id 0: rawvideo
#dimensions 0: 10x66
#sar 0: 1/1
#stream#, dts,        pts, duration,     size, hash
0,          0,          0,        1,      990, 1bd8b2d3bf679c4b925780bf82e12fae
0,          1,          1,        1,      990, a0254b4cd4928fe1080cd6f8828288a9
0,          2,          2,        1,      990, e416e99644cca481dc2806708d716ecb
0,          3,          3,        1,      990, b1ed3203ffc77ed814f1cda7bfe721d2
0,          4,          4,        1,      990, 0ff7b9d84765f7b0b0650775ba72b334
0,          5,          5,        1,      990, 8b6cd91e035bad19b46b132bd411231d
0,          6,          6,        1,      990, c714759a9a64402043ad00e5677c954c
0,          7,          7,        1,      990, 8e4738010b724ce66bcd0a5d5afcfbc1
0,          8,          8,        1,      990, 998a7aab8ed94f4b69bed39fb487f8d5
0,          9,          9,        1,      990, 9964683a15a65c032631a4f608e6009b
